<?xml version="1.0" standalone="no"?>
<!DOCTYPE svg PUBLIC "-//W3C//DTD SVG 20010904//EN"
 "http://www.w3.org/TR/2001/REC-SVG-20010904/DTD/svg10.dtd">
<svg version="1.0" xmlns="http://www.w3.org/2000/svg"
 width="640.000000pt" height="640.000000pt" viewBox="0 0 640.000000 640.000000"
 preserveAspectRatio="xMidYMid meet">
<metadata>
Created by potrace 1.14, written by Peter Selinger 2001-2017
</metadata>
<g transform="translate(0.000000,640.000000) scale(0.100000,-0.100000)"
fill="#000000" stroke="none">
<path d="M7 5603 c7 -2 19 -2 26 0 6 3 1 5 -13 5 -14 0 -19 -2 -13 -5z"/>
<path d="M2430 5555 c0 -8 -4 -15 -10 -15 -18 0 -10 -56 10 -75 18 -17 20 -17
14 -2 -3 10 -1 17 5 17 12 0 14 32 5 68 -7 25 -24 30 -24 7z"/>
<path d="M190 5509 c0 -5 -4 -7 -10 -4 -6 4 -10 -8 -10 -29 0 -25 4 -36 15
-36 8 0 15 9 15 20 0 11 7 20 15 20 20 0 19 26 -1 34 -21 8 -24 8 -24 -5z"/>
<path d="M0 5430 c0 -5 5 -10 10 -10 6 0 10 5 10 10 0 6 -4 10 -10 10 -5 0
-10 -4 -10 -10z"/>
<path d="M1420 5380 c-9 -17 -8 -20 9 -20 14 0 18 5 14 20 -3 11 -7 20 -9 20
-2 0 -8 -9 -14 -20z"/>
<path d="M1337 5383 c-10 -9 -9 -23 1 -23 5 0 9 7 9 15 0 17 -1 18 -10 8z"/>
<path d="M2231 5374 c0 -11 3 -14 6 -6 3 7 2 16 -1 19 -3 4 -6 -2 -5 -13z"/>
<path d="M0 5350 c0 -5 5 -10 10 -10 6 0 10 5 10 10 0 6 -4 10 -10 10 -5 0
-10 -4 -10 -10z"/>
<path d="M960 5330 c0 -5 5 -10 10 -10 6 0 10 5 10 10 0 6 -4 10 -10 10 -5 0
-10 -4 -10 -10z"/>
<path d="M480 5310 c0 -5 7 -10 15 -10 8 0 15 5 15 10 0 6 -7 10 -15 10 -8 0
-15 -4 -15 -10z"/>
<path d="M200 5290 c0 -5 -15 -10 -32 -10 -50 0 -78 -11 -78 -29 0 -14 -2 -14
-10 -1 -8 13 -10 13 -10 -1 0 -9 -7 -19 -15 -23 -20 -7 -19 -32 1 -40 8 -3 24
-1 34 4 22 12 50 3 50 -16 0 -10 -8 -13 -29 -9 -21 3 -31 0 -35 -11 -10 -25 4
-37 35 -30 18 3 34 0 43 -9 16 -17 86 -21 86 -5 0 6 18 10 40 10 l40 0 0 80 0
80 -40 0 c-22 0 -40 5 -40 10 0 6 -9 10 -20 10 -11 0 -20 -4 -20 -10z"/>
<path d="M1020 5190 c0 -5 9 -10 20 -10 11 0 20 5 20 10 0 6 -9 10 -20 10 -11
0 -20 -4 -20 -10z"/>
<path d="M1619 5129 c-17 -17 -19 -23 -8 -30 23 -15 69 -11 69 6 0 8 -7 15
-15 15 -9 0 -12 6 -9 15 9 22 -13 18 -37 -6z"/>
<path d="M1480 5130 c0 -5 5 -10 10 -10 6 0 10 5 10 10 0 6 -4 10 -10 10 -5 0
-10 -4 -10 -10z"/>
<path d="M1520 5130 c0 -5 7 -10 16 -10 8 0 12 5 9 10 -3 6 -10 10 -16 10 -5
0 -9 -4 -9 -10z"/>
<path d="M4910 5050 c0 -5 5 -10 10 -10 6 0 10 5 10 10 0 6 -4 10 -10 10 -5 0
-10 -4 -10 -10z"/>
<path d="M530 5029 c0 -5 -11 -9 -25 -9 -33 0 -32 -18 1 -26 18 -5 22 -9 13
-14 -7 -5 -18 -6 -26 -3 -7 3 -13 0 -13 -6 0 -6 17 -11 40 -11 22 0 40 5 40
10 0 6 -4 10 -10 10 -5 0 -10 5 -10 10 0 6 12 10 26 10 21 0 24 3 15 14 -14
17 -51 28 -51 15z"/>
<path d="M92 5011 c-7 -4 -31 -7 -53 -6 -36 2 -39 0 -39 -24 0 -26 2 -27 58
-26 52 0 57 2 60 24 4 28 -8 43 -26 32z"/>
<path d="M173 4943 c-18 -6 -16 -40 1 -46 8 -3 20 1 27 9 10 12 9 18 -2 28 -8
8 -20 12 -26 9z"/>
<path d="M320 4913 c0 -7 9 -13 20 -13 11 0 20 4 20 10 0 5 26 11 58 13 44 3
39 3 -20 3 -58 0 -78 -3 -78 -13z"/>
<path d="M4293 4844 c-7 -19 2 -28 22 -21 19 8 19 23 0 31 -9 3 -18 -1 -22
-10z"/>
<path d="M340 4809 c0 -7 -10 -9 -25 -7 -13 3 -22 2 -20 -2 8 -13 -26 -20 -45
-10 -10 6 -35 10 -54 10 -33 0 -36 -2 -36 -29 0 -16 -3 -43 -6 -60 l-6 -31
-74 0 -74 0 0 -40 c0 -39 1 -40 35 -40 24 0 35 -5 35 -15 0 -10 -11 -15 -35
-15 l-35 0 0 -375 0 -375 40 0 c22 0 40 5 40 10 0 6 18 10 40 10 33 0 40 -3
40 -20 0 -11 7 -20 15 -20 8 0 15 -4 15 -9 0 -10 32 -7 50 4 6 4 8 15 5 26 -4
11 -2 19 4 19 6 0 11 7 11 16 0 9 14 29 30 44 21 19 30 38 30 58 0 17 6 33 13
35 14 6 -35 9 -115 7 l-58 -1 0 64 c0 72 6 97 24 97 7 0 10 14 8 40 -3 25 0
40 7 40 6 0 11 -16 11 -36 0 -21 4 -33 10 -29 5 3 10 1 10 -5 0 -6 5 -8 10 -5
6 4 8 10 5 15 -8 13 6 40 21 40 10 0 14 14 14 50 0 43 -3 50 -20 50 -11 0 -20
-4 -20 -10 0 -5 -9 -10 -20 -10 -11 0 -20 4 -20 9 0 5 -9 11 -20 14 -18 5 -20
14 -20 76 0 50 4 71 13 71 8 0 9 3 1 8 -6 4 -13 21 -16 37 l-4 30 59 -3 c41
-3 57 -1 53 7 -4 7 1 11 14 11 19 0 21 5 19 46 -2 29 2 48 10 53 7 5 17 24 21
42 7 32 8 32 9 7 2 -44 21 -33 21 11 0 29 6 44 21 55 20 13 20 16 6 30 -18 18
-47 21 -47 5z m-107 -101 c-6 -12 -33 -10 -33 2 0 6 5 10 10 10 6 0 10 8 11
18 0 14 2 14 8 -3 5 -11 7 -23 4 -27z m-52 -21 c-10 -9 -11 -8 -5 6 3 10 9 15
12 12 3 -3 0 -11 -7 -18z m118 -19 c1 -5 -12 -8 -28 -8 -30 0 -49 24 -29 36 7
4 8 3 4 -4 -5 -8 0 -12 13 -12 13 0 21 7 22 18 0 14 2 14 9 -3 5 -11 9 -23 9
-27z"/>
<path d="M0 4793 c0 -7 9 -14 20 -14 67 -4 75 -3 75 11 0 11 -13 15 -47 15
-33 1 -48 -3 -48 -12z"/>
<path d="M360 4581 c0 -51 -3 -61 -20 -66 -15 -5 -20 -15 -20 -41 0 -21 4 -33
10 -29 6 3 10 13 10 21 0 8 9 14 20 14 18 0 20 7 20 80 0 47 -4 80 -10 80 -6
0 -10 -26 -10 -59z"/>
<path d="M2094 4464 c-19 -15 -19 -15 1 -6 11 5 27 12 35 15 13 5 13 6 -1 6
-8 1 -24 -6 -35 -15z"/>
<path d="M2025 4410 c-10 -11 -24 -20 -32 -20 -7 0 -13 -4 -13 -10 0 -20 38
-9 55 16 21 32 15 41 -10 14z"/>
<path d="M3505 4390 c-3 -5 -1 -10 4 -10 6 0 11 5 11 10 0 6 -2 10 -4 10 -3 0
-8 -4 -11 -10z"/>
<path d="M2026 4346 c4 -12 0 -16 -15 -16 -20 0 -27 -10 -15 -23 8 -8 52 9 70
28 14 13 14 15 1 15 -9 0 -23 3 -31 6 -12 5 -15 2 -10 -10z"/>
<path d="M2332 4335 c-17 -37 -14 -45 4 -12 9 16 14 31 11 33 -2 2 -9 -7 -15
-21z"/>
<path d="M1942 4338 c1 -7 -4 -31 -12 -53 -7 -22 -13 -49 -12 -61 1 -19 -3
-21 -38 -19 -36 2 -38 1 -29 -16 5 -11 18 -19 29 -19 11 0 24 -12 32 -30 7
-16 16 -30 20 -30 13 0 9 48 -4 52 -7 3 -9 12 -5 22 5 12 13 15 27 11 21 -7
28 10 8 18 -9 3 -7 10 7 21 16 13 17 17 6 25 -13 8 -12 32 5 75 4 12 0 16 -15
16 -12 0 -21 -6 -19 -12z"/>
<path d="M2190 4340 c0 -5 5 -10 10 -10 6 0 10 5 10 10 0 6 -4 10 -10 10 -5 0
-10 -4 -10 -10z"/>
<path d="M2200 4310 c0 -5 5 -10 11 -10 5 0 7 5 4 10 -3 6 -8 10 -11 10 -2 0
-4 -4 -4 -10z"/>
<path d="M2722 4301 c-9 -5 -13 -23 -11 -47 4 -52 -9 -70 -52 -77 -32 -5 -38
-2 -53 25 -10 16 -22 42 -26 56 l-8 27 -1 -30 c-1 -16 6 -43 14 -59 18 -35 18
-36 1 -36 -7 0 -21 10 -30 23 -11 15 -9 7 5 -28 15 -36 20 -65 16 -103 -3 -49
-2 -55 20 -65 19 -8 26 -8 33 3 7 11 14 12 35 2 20 -9 31 -10 41 -1 8 6 26 8
44 4 23 -5 30 -3 30 9 0 19 1 19 34 6 23 -8 26 -7 26 11 0 17 4 20 24 15 18
-4 25 -1 29 14 3 11 12 20 21 20 19 0 19 -1 6 -34 -14 -38 -155 -105 -237
-113 -65 -6 -70 -11 -53 -44 16 -29 -5 -23 -26 9 -23 35 -35 47 -57 55 -10 4
-15 11 -12 17 11 18 -15 10 -32 -10 -19 -22 -62 -27 -81 -8 -9 9 -12 9 -12 0
0 -7 3 -12 8 -12 11 0 12 -54 0 -61 -7 -4 -5 -18 5 -40 49 -106 71 -219 47
-234 -5 -3 -10 -12 -10 -18 0 -7 4 -6 10 3 5 8 10 11 10 6 0 -4 -14 -24 -30
-43 -23 -25 -29 -40 -24 -56 10 -35 20 -40 57 -28 24 8 41 9 54 2 10 -6 35
-17 55 -26 44 -20 54 -41 27 -55 -15 -8 -25 -7 -41 5 -13 8 -40 15 -61 15 -43
0 -107 -26 -107 -44 -1 -6 -8 3 -18 19 l-17 30 -3 -33 c-2 -22 3 -41 14 -53
13 -14 17 -34 15 -69 -1 -39 3 -55 19 -72 12 -14 18 -28 13 -38 -3 -8 -6 -28
-4 -45 1 -16 3 -86 4 -154 2 -110 4 -125 21 -135 11 -6 27 -18 36 -26 46 -41
65 -52 87 -52 12 0 23 -4 23 -9 0 -5 5 -9 11 -9 6 0 9 9 6 20 -3 11 -1 23 4
26 5 3 9 13 9 23 0 13 -10 21 -33 25 -58 11 -81 59 -57 120 12 33 36 25 45
-14 7 -34 29 -55 46 -44 8 5 10 27 5 78 -4 39 -10 98 -13 131 -2 33 -9 63 -15
66 -7 4 -3 27 11 64 12 32 19 66 15 77 -3 10 -1 25 6 33 21 25 32 120 37 315
3 134 8 197 16 202 8 5 6 8 -6 8 -10 0 -15 5 -12 10 3 6 28 10 55 10 36 0 52
5 62 18 12 17 49 42 62 42 9 0 2 -45 -9 -52 -5 -4 -22 -8 -36 -8 -14 0 -33 -6
-44 -13 -16 -13 -16 -14 11 -10 26 4 29 1 31 -23 1 -19 -1 -23 -8 -13 -5 9 -9
-11 -9 -56 0 -62 -3 -73 -28 -100 -42 -46 -67 -135 -42 -150 11 -7 2 -64 -12
-82 -5 -7 -11 -22 -13 -35 -3 -13 -11 -57 -18 -98 -22 -113 -29 -190 -20 -190
9 0 25 82 39 197 4 29 9 52 13 51 17 -2 21 4 12 21 -10 18 13 107 43 170 18
38 70 54 146 47 105 -11 110 -13 110 -53 0 -19 5 -43 10 -53 8 -14 4 -36 -15
-86 -27 -73 -30 -84 -16 -84 5 0 14 23 21 50 7 28 16 52 21 55 4 3 6 13 3 23
-4 9 2 5 13 -10 24 -35 70 -71 84 -66 6 2 -4 19 -24 39 -19 19 -44 50 -56 69
-25 41 -28 98 -6 106 8 4 13 10 10 14 -3 4 -2 30 2 56 5 37 8 43 14 29 6 -16
8 -17 8 -3 1 25 13 28 53 16 54 -16 88 -4 88 31 0 21 6 30 22 34 12 4 26 1 31
-6 5 -7 7 -1 4 16 -3 21 2 32 21 47 28 23 52 12 52 -23 0 -11 3 -18 6 -14 12
12 -6 77 -21 77 -8 0 -15 -4 -15 -8 0 -12 -56 -42 -64 -34 -10 9 -36 71 -36
84 0 10 57 1 75 -12 6 -4 30 -14 54 -24 46 -18 81 -14 81 10 0 8 3 14 8 14 4
0 13 -28 19 -61 14 -73 28 -92 48 -65 18 24 42 15 57 -21 8 -21 12 -24 15 -11
2 9 -6 30 -18 47 -25 33 -19 51 17 51 36 0 75 -23 102 -60 24 -32 61 -39 70
-12 4 12 0 12 -19 2 -20 -11 -25 -10 -38 9 -37 52 -94 97 -144 111 -35 11 -53
22 -55 34 -3 14 0 17 12 12 39 -15 51 -18 31 -6 -69 42 -66 38 -49 65 15 22
14 23 -5 18 -12 -3 -18 -9 -15 -14 9 -16 -5 -10 -30 12 -14 12 -34 43 -45 70
-14 32 -32 54 -51 64 -17 9 -30 23 -30 32 0 29 -39 -16 -46 -53 -3 -19 -12
-34 -20 -34 -8 0 -14 -3 -14 -6 0 -28 85 -118 105 -110 17 6 75 -24 75 -39 0
-7 -7 -16 -16 -19 -23 -9 -27 -8 -21 8 5 13 -46 31 -155 53 -39 7 -55 29 -29
38 20 6 20 8 5 31 -18 27 -21 111 -4 128 20 20 9 23 -32 9 -47 -16 -62 -6 -47
34 5 14 5 23 -1 23 -6 0 -10 -9 -10 -21 0 -31 -24 -17 -28 16 -2 15 2 32 10
36 10 7 9 9 -4 9 -10 0 -18 -4 -18 -9 0 -5 -17 -4 -37 2 -57 15 -198 20 -222
7 -13 -6 -21 -7 -21 -1 0 10 -43 61 -51 61 -2 0 -10 -4 -17 -9z m416 -247 c1
-1 -3 -13 -9 -28 -16 -34 -33 -33 -25 2 4 18 -2 12 -19 -20 -36 -68 -49 -64
-47 15 l0 29 -26 -25 c-22 -20 -31 -23 -49 -14 -27 12 -30 35 -5 53 16 13 16
13 0 14 -10 0 -18 4 -18 10 0 5 30 10 68 12 59 3 70 0 97 -22 16 -14 31 -26
33 -26z m32 -25 c0 -5 -4 -9 -10 -9 -5 0 -10 7 -10 16 0 8 5 12 10 9 6 -3 10
-10 10 -16z m-256 -125 c-34 -28 -44 -30 -44 -8 0 9 14 21 30 27 17 6 30 16
31 22 0 5 3 4 6 -4 3 -7 -7 -24 -23 -37z m-142 -16 c-14 -13 -66 -13 -58 1 3
4 19 8 35 7 17 -1 27 -4 23 -8z m216 -40 c4 -34 -14 -69 -32 -62 -21 8 -28 51
-14 74 17 28 42 21 46 -12z m232 -127 c0 -38 -33 -45 -88 -18 -22 10 -22 12
-5 18 26 11 93 11 93 0z m-560 -156 c0 -5 -5 -3 -10 5 -5 8 -10 20 -10 25 0 6
5 3 10 -5 5 -8 10 -19 10 -25z"/>
<path d="M2242 4291 c-16 -10 -18 -21 -4 -30 15 -9 25 -51 13 -51 -6 0 -11 6
-11 14 0 20 -19 31 -32 18 -6 -6 -4 -15 6 -24 13 -14 12 -15 -13 -14 -15 1
-36 9 -45 19 -10 10 -21 15 -24 12 -4 -3 -2 -9 3 -13 6 -4 15 -16 22 -28 11
-20 10 -21 -26 -14 -20 3 -45 12 -56 18 -19 11 -18 11 8 12 15 0 27 4 27 8 0
13 -61 12 -84 -1 -12 -6 -27 -10 -33 -9 -7 2 -13 -4 -13 -12 0 -10 6 -13 15
-10 11 4 13 2 9 -9 -3 -8 0 -18 7 -23 8 -4 10 -3 5 4 -4 7 -3 12 2 12 5 0 20
-22 34 -49 l24 -49 -26 9 c-24 9 -24 9 5 -14 33 -27 59 -25 52 5 -4 12 3 24
19 34 32 21 22 35 -17 24 -31 -9 -31 -9 -13 11 22 24 94 23 106 -1 6 -11 7
-10 5 5 -2 11 -9 19 -16 17 -7 -1 -10 2 -7 7 3 5 22 12 42 15 27 6 39 3 47 -9
10 -13 12 -12 12 10 0 14 -3 25 -7 25 -4 0 -2 14 4 31 6 16 8 33 4 36 -3 4 -6
-2 -6 -12 0 -22 -16 -9 -22 17 -2 12 -7 15 -16 9z m-152 -121 c0 -5 -9 -10
-19 -10 -11 0 -23 5 -26 10 -4 6 5 10 19 10 14 0 26 -4 26 -10z"/>
<path d="M480 4230 c0 -5 7 -10 15 -10 8 0 15 5 15 10 0 6 -7 10 -15 10 -8 0
-15 -4 -15 -10z"/>
<path d="M2175 4230 c-3 -5 -1 -10 4 -10 6 0 11 5 11 10 0 6 -2 10 -4 10 -3 0
-8 -4 -11 -10z"/>
<path d="M2393 4233 c-15 -5 -17 -23 -4 -23 5 0 11 7 15 15 3 8 4 15 3 14 -1
0 -8 -3 -14 -6z"/>
<path d="M2337 4198 c-6 -21 -2 -36 7 -27 10 11 16 49 8 49 -5 0 -12 -10 -15
-22z"/>
<path d="M3430 4200 c0 -5 5 -10 11 -10 5 0 7 5 4 10 -3 6 -8 10 -11 10 -2 0
-4 -4 -4 -10z"/>
<path d="M1958 4135 c2 -19 6 -35 8 -35 2 0 4 16 4 35 0 19 -4 35 -8 35 -4 0
-6 -16 -4 -35z"/>
<path d="M2236 4155 c4 -8 10 -12 15 -9 14 8 10 24 -6 24 -9 0 -12 -6 -9 -15z"/>
<path d="M2413 4162 c-14 -2 -20 -8 -16 -18 3 -8 0 -20 -6 -28 -9 -11 -7 -15
11 -19 28 -8 48 9 48 39 0 27 -7 31 -37 26z m17 -21 c0 -6 -4 -13 -10 -16 -5
-3 -10 1 -10 9 0 9 5 16 10 16 6 0 10 -4 10 -9z"/>
<path d="M3450 4151 c0 -5 5 -13 10 -16 6 -3 10 -2 10 4 0 5 -4 13 -10 16 -5
3 -10 2 -10 -4z"/>
<path d="M2310 4138 c0 -9 5 -20 10 -23 13 -8 13 5 0 25 -8 13 -10 13 -10 -2z"/>
<path d="M2001 4123 c-1 -6 -4 -20 -7 -30 -5 -17 -5 -17 6 0 6 10 9 23 6 30
-3 9 -5 9 -5 0z"/>
<path d="M2220 4106 c0 -2 7 -7 16 -10 8 -3 12 -2 9 4 -6 10 -25 14 -25 6z"/>
<path d="M3460 4100 c0 -5 5 -10 11 -10 5 0 7 5 4 10 -3 6 -8 10 -11 10 -2 0
-4 -4 -4 -10z"/>
<path d="M340 4061 c0 -12 5 -21 10 -21 6 0 10 6 10 14 0 8 -4 18 -10 21 -5 3
-10 -3 -10 -14z"/>
<path d="M1995 4026 c0 -13 3 -22 8 -19 4 2 7 13 7 24 0 10 -3 19 -7 19 -5 0
-8 -11 -8 -24z"/>
<path d="M2355 4031 c-3 -5 -1 -12 5 -16 5 -3 10 1 10 9 0 18 -6 21 -15 7z"/>
<path d="M3538 4033 c7 -3 16 -2 19 1 4 3 -2 6 -13 5 -11 0 -14 -3 -6 -6z"/>
<path d="M3568 3993 c7 -3 16 -2 19 1 4 3 -2 6 -13 5 -11 0 -14 -3 -6 -6z"/>
<path d="M3671 3946 c2 -2 15 -9 29 -16 23 -12 24 -12 11 3 -7 10 -20 17 -29
17 -8 0 -13 -2 -11 -4z"/>
<path d="M3748 3913 c6 -2 18 -2 25 0 6 3 1 5 -13 5 -14 0 -19 -2 -12 -5z"/>
<path d="M2718 3833 c7 -3 16 -2 19 1 4 3 -2 6 -13 5 -11 0 -14 -3 -6 -6z"/>
<path d="M20 3750 c0 -5 7 -10 16 -10 8 0 12 5 9 10 -3 6 -10 10 -16 10 -5 0
-9 -4 -9 -10z"/>
<path d="M3520 3720 c0 -5 5 -10 10 -10 6 0 10 5 10 10 0 6 -4 10 -10 10 -5 0
-10 -4 -10 -10z"/>
<path d="M3550 3690 c0 -5 5 -10 11 -10 5 0 7 5 4 10 -3 6 -8 10 -11 10 -2 0
-4 -4 -4 -10z"/>
<path d="M3360 3650 c0 -5 5 -10 11 -10 5 0 7 5 4 10 -3 6 -8 10 -11 10 -2 0
-4 -4 -4 -10z"/>
<path d="M3104 3626 c-3 -14 -11 -26 -17 -26 -6 0 -7 -3 -4 -7 4 -3 17 4 28
16 15 16 18 26 11 33 -8 8 -13 3 -18 -16z"/>
<path d="M3436 3615 c42 -39 44 -41 44 -21 0 13 -57 56 -74 56 -4 0 9 -16 30
-35z"/>
<path d="M3300 3589 c0 -5 5 -7 10 -4 6 3 10 8 10 11 0 2 -4 4 -10 4 -5 0 -10
-5 -10 -11z"/>
<path d="M3354 3557 c-9 -11 -34 -72 -34 -85 0 -15 45 56 48 75 3 26 1 27 -14
10z"/>
<path d="M3460 3503 c-34 -86 -99 -194 -134 -225 -17 -15 -26 -28 -19 -28 6 0
19 7 27 15 12 12 20 13 35 5 11 -5 30 -10 43 -10 12 0 40 -6 63 -14 118 -40
114 -40 138 -14 27 29 51 40 72 32 19 -8 20 -24 1 -24 -21 0 -30 -20 -17 -33
17 -17 13 -27 -11 -28 -19 -1 -19 -2 -5 -6 11 -3 16 -11 13 -19 -3 -8 -1 -14
5 -14 6 0 7 -4 4 -10 -10 -16 -36 -11 -33 6 2 10 -3 19 -9 21 -15 5 -18 -23
-4 -31 4 -3 11 -19 14 -36 9 -40 25 -38 33 4 7 39 27 61 64 70 14 3 19 3 12 0
-6 -3 -9 -10 -6 -15 3 -6 11 -6 20 2 20 16 88 3 80 -17 -3 -8 -1 -14 4 -14 13
0 24 45 17 70 -3 13 0 20 9 20 8 0 14 4 14 10 0 5 -7 7 -16 3 -12 -4 -15 -2
-12 8 7 19 -20 49 -38 42 -8 -3 -20 0 -27 6 -8 6 -31 13 -53 15 -58 6 -86 21
-114 61 -14 20 -44 60 -67 90 -24 29 -43 56 -43 59 0 13 20 5 52 -20 18 -15 9
-4 -20 25 -30 28 -57 51 -61 51 -4 0 -18 -26 -31 -57z m370 -268 c7 -9 10 -18
7 -22 -8 -7 -37 15 -37 28 0 14 16 11 30 -6z"/>
<path d="M2958 3523 c7 -3 16 -2 19 1 4 3 -2 6 -13 5 -11 0 -14 -3 -6 -6z"/>
<path d="M2908 3513 c7 -3 16 -2 19 1 4 3 -2 6 -13 5 -11 0 -14 -3 -6 -6z"/>
<path d="M2410 3450 c0 -5 5 -10 10 -10 6 0 10 5 10 10 0 6 -4 10 -10 10 -5 0
-10 -4 -10 -10z"/>
<path d="M2600 3400 c0 -5 5 -10 10 -10 6 0 10 5 10 10 0 6 -4 10 -10 10 -5 0
-10 -4 -10 -10z"/>
<path d="M2864 3394 c3 -9 6 -22 6 -30 0 -9 4 -13 9 -10 11 7 2 56 -11 56 -6
0 -7 -7 -4 -16z"/>
<path d="M2800 3354 c0 -8 5 -12 10 -9 6 3 10 10 10 16 0 5 -4 9 -10 9 -5 0
-10 -7 -10 -16z"/>
<path d="M3230 3350 c-8 -6 -27 -10 -42 -10 -31 0 -37 -14 -12 -24 24 -9 46
-7 39 4 -3 5 0 7 8 4 8 -3 17 2 21 12 8 21 4 25 -14 14z"/>
<path d="M2762 3302 c-19 -22 -25 -24 -32 -12 -8 12 -10 10 -10 -7 0 -26 8
-28 30 -10 25 21 54 57 44 56 -5 0 -19 -12 -32 -27z"/>
<path d="M2911 3275 c-1 -32 11 -58 25 -55 5 1 10 -3 12 -9 2 -6 -1 -11 -6
-11 -5 0 -7 -11 -5 -24 3 -13 0 -27 -6 -30 -6 -4 -11 -13 -11 -19 0 -9 2 -9 8
1 6 8 15 0 31 -28 12 -22 27 -40 33 -40 6 0 3 9 -6 19 -10 11 -15 25 -10 32 4
7 3 10 -3 6 -6 -4 -13 -1 -16 6 -7 18 12 128 25 147 10 12 10 13 -2 3 -22 -20
-50 -15 -60 10 -8 20 -9 20 -9 -8z"/>
<path d="M2940 3280 c0 -5 5 -10 11 -10 5 0 7 5 4 10 -3 6 -8 10 -11 10 -2 0
-4 -4 -4 -10z"/>
<path d="M3595 3190 c3 -5 8 -10 11 -10 2 0 4 5 4 10 0 6 -5 10 -11 10 -5 0
-7 -4 -4 -10z"/>
<path d="M3793 3135 c-8 -9 -9 -16 -3 -20 6 -3 10 -2 10 4 0 6 8 7 18 4 15 -6
15 -5 3 10 -16 20 -13 20 -28 2z"/>
<path d="M3950 3142 c0 -13 -16 -34 -67 -90 -18 -19 -33 -35 -33 -36 0 -1 9
-2 19 -2 11 0 17 4 15 8 -3 4 6 8 20 8 14 0 26 7 28 15 3 13 7 13 30 1 25 -13
27 -12 32 9 3 13 9 30 12 39 3 9 2 16 -4 16 -5 0 -12 -9 -15 -20 -3 -11 -12
-20 -21 -20 -9 0 -16 8 -16 20 0 11 4 20 9 20 5 0 8 7 7 15 -3 18 -16 32 -16
17z"/>
<path d="M3750 3099 c0 -5 5 -7 10 -4 6 3 10 8 10 11 0 2 -4 4 -10 4 -5 0 -10
-5 -10 -11z"/>
<path d="M3801 3074 c-7 -8 -11 -17 -9 -20 3 -2 13 5 23 16 10 11 14 20 9 20
-5 -1 -15 -8 -23 -16z"/>
<path d="M2908 3058 c-19 -19 -23 -40 -11 -51 3 -4 12 10 19 30 7 20 12 38 11
38 -1 1 -10 -7 -19 -17z"/>
<path d="M2678 3039 c6 -7 12 -20 12 -28 0 -9 10 -27 21 -41 22 -26 22 -27 -3
42 -5 14 -17 29 -26 33 -14 5 -15 4 -4 -6z"/>
<path d="M3725 3040 c3 -5 13 -10 21 -10 8 0 14 -8 14 -17 0 -15 2 -14 14 2 8
11 12 24 9 28 -3 5 -9 4 -13 -3 -5 -9 -9 -9 -14 -1 -4 6 -14 11 -22 11 -8 0
-12 -4 -9 -10z"/>
<path d="M2936 2999 c-7 -17 17 -73 27 -62 10 10 8 43 -2 43 -5 0 -11 8 -14
18 -3 15 -5 15 -11 1z"/>
<path d="M3716 2985 c4 -8 10 -12 15 -9 11 6 2 24 -11 24 -5 0 -7 -7 -4 -15z"/>
<path d="M3038 2940 c-4 -43 -12 -58 -44 -91 -75 -77 -203 -87 -242 -18 -16
27 -32 38 -32 22 0 -11 44 -73 53 -73 4 0 7 -10 7 -22 0 -24 47 -71 62 -62 5
3 6 -5 3 -18 -4 -17 0 -29 14 -42 12 -11 21 -25 21 -31 0 -7 12 -16 26 -19 30
-8 27 -31 -5 -30 -11 0 -21 -3 -21 -8 0 -4 7 -8 15 -8 20 0 19 -26 -1 -34 -12
-5 -14 -9 -5 -20 6 -7 8 -22 5 -32 -6 -18 -6 -18 8 0 24 31 62 31 82 1 17 -25
17 -26 -7 -19 -14 3 -28 1 -32 -5 -3 -6 -11 -9 -16 -6 -5 4 -9 -3 -9 -15 0
-17 -4 -19 -27 -14 -25 7 -27 6 -14 -9 9 -12 10 -17 2 -17 -7 0 -9 -5 -6 -10
4 -6 16 -8 28 -4 20 6 21 5 7 -12 -21 -27 -31 -33 -47 -27 -10 4 -13 -9 -13
-55 0 -34 -4 -63 -9 -66 -5 -3 -11 -15 -14 -26 -3 -11 -1 -17 4 -14 13 7 39
72 40 98 1 19 2 18 9 -4 l7 -25 13 30 c16 35 17 40 19 60 1 10 11 15 30 15 16
0 34 -7 41 -15 7 -8 18 -15 24 -15 12 0 14 -55 3 -67 -4 -3 -7 -13 -7 -22 1
-9 9 0 20 19 10 19 16 44 13 55 -3 11 -2 17 3 12 4 -4 19 15 33 42 14 27 36
67 49 90 12 23 20 46 17 51 -3 5 -1 11 5 15 19 12 24 -28 7 -57 -19 -33 -23
-78 -7 -78 12 0 54 41 56 55 3 25 5 27 17 16 8 -6 17 -8 20 -4 11 10 8 51 -3
58 -5 3 -10 10 -10 15 0 10 45 -1 78 -19 19 -10 26 -6 61 31 99 108 141 156
141 163 0 3 -8 5 -17 5 -10 0 -26 7 -36 15 -11 7 -25 11 -32 9 -7 -3 -16 -1
-20 5 -3 6 -13 11 -22 11 -8 0 -26 9 -39 19 l-25 20 22 11 c28 15 87 6 104
-16 7 -11 27 -18 49 -19 32 -1 42 5 67 36 31 40 41 82 14 59 -12 -10 -15 -10
-15 4 0 24 -17 20 -52 -15 -24 -22 -38 -28 -53 -23 -37 13 -88 5 -136 -20 -27
-14 -51 -21 -54 -16 -12 19 28 86 70 118 24 17 47 32 50 32 10 0 5 -19 -11
-34 -13 -14 -13 -16 0 -16 8 0 18 9 21 20 5 17 15 20 66 20 40 0 65 -5 75 -15
9 -8 32 -15 53 -15 20 0 43 -6 50 -12 10 -11 15 -9 27 6 21 29 18 56 -6 56
-11 0 -20 -4 -20 -10 0 -5 -19 -10 -43 -10 -34 0 -44 4 -52 23 -7 15 -17 21
-32 19 -13 -2 -23 2 -23 7 0 6 -7 11 -15 11 -8 0 -15 -4 -15 -9 0 -4 -20 -11
-45 -14 -114 -16 -180 -82 -179 -179 0 -27 -3 -48 -7 -48 -4 0 -10 -13 -14
-30 -4 -19 -13 -30 -23 -30 -14 0 -14 -2 -3 -9 11 -7 9 -13 -8 -30 -11 -11
-21 -27 -21 -35 0 -7 -6 -19 -14 -26 -8 -6 -16 -23 -18 -37 -3 -24 -5 -23 -27
18 -20 37 -24 62 -27 157 -2 63 -8 121 -14 130 -6 12 -7 0 -3 -35 7 -61 -4
-135 -17 -113 -4 8 -13 40 -18 70 -6 30 -13 63 -17 72 -7 18 30 62 45 53 9 -5
7 112 -2 121 -3 2 -8 -18 -10 -46z m-213 -200 c14 -26 14 -29 0 -24 -14 6 -35
34 -35 48 0 17 22 2 35 -24z m175 -118 c-14 -47 -21 -60 -36 -66 -20 -8 -17
13 8 61 24 46 41 49 28 5z m310 -12 c0 -5 -5 -10 -11 -10 -5 0 -7 5 -4 10 3 6
8 10 11 10 2 0 4 -4 4 -10z m28 -32 c-2 -6 -10 -14 -16 -16 -7 -2 -10 2 -6 12
7 18 28 22 22 4z m-236 -81 c20 -42 23 -57 8 -57 -5 0 -13 12 -16 26 -4 14
-12 23 -18 21 -7 -3 -12 14 -13 47 -1 44 0 48 9 26 6 -14 19 -42 30 -63z m58
29 c0 -3 -4 -8 -10 -11 -5 -3 -10 -1 -10 4 0 6 5 11 10 11 6 0 10 -2 10 -4z
m30 -105 c0 -5 -7 -11 -15 -15 -15 -5 -20 5 -8 17 9 10 23 9 23 -2z m-240 -71
c0 -5 -5 -10 -11 -10 -5 0 -7 5 -4 10 3 6 8 10 11 10 2 0 4 -4 4 -10z m50 -5
c14 -8 21 -15 15 -15 -5 -1 -1 -5 10 -10 16 -7 17 -9 3 -9 -9 -1 -30 10 -45
24 -31 27 -22 32 17 10z"/>
<path d="M3748 2890 c-27 -28 -48 -57 -48 -66 0 -9 -9 -18 -20 -21 -11 -3 -20
-9 -20 -14 0 -9 -21 -37 -51 -69 -10 -10 -13 -23 -9 -30 6 -9 13 -3 24 19 18
35 41 43 31 10 -9 -29 31 -64 53 -46 13 10 12 12 -6 15 -12 2 -22 10 -22 19 0
8 6 13 13 10 6 -3 19 -8 28 -11 18 -8 54 28 44 43 -8 15 -32 14 -41 -1 -5 -8
-2 -9 9 -5 10 3 17 2 17 -2 0 -8 -23 -21 -36 -21 -2 0 -4 9 -4 21 0 11 -5 29
-10 40 -8 15 -7 19 5 19 8 0 15 5 15 10 0 6 6 10 14 10 8 0 17 6 20 13 3 6 5
3 5 -8 -1 -26 11 -65 21 -65 12 0 18 59 6 64 -8 2 -7 7 1 16 14 15 34 5 27
-14 -3 -7 2 -16 11 -20 10 -4 19 3 27 19 6 14 16 25 21 25 6 0 7 3 3 7 -4 4
-16 -3 -26 -17 -16 -21 -20 -22 -20 -7 0 10 9 27 20 39 22 24 21 32 -4 22 -9
-3 -16 -12 -16 -20 0 -8 -4 -14 -10 -14 -5 0 -10 8 -10 18 -1 16 -1 16 -10 0
-6 -10 -18 -14 -30 -11 -16 4 -18 8 -9 19 6 8 18 14 25 14 8 0 14 5 14 10 0 6
16 10 35 10 19 0 35 -4 35 -8 0 -5 7 -17 15 -28 11 -14 14 -15 9 -3 -3 10 -1
20 5 23 6 4 8 13 4 21 -3 11 -21 15 -57 15 -48 0 -54 -3 -98 -50z"/>
<path d="M2720 2879 c0 -5 5 -7 10 -4 6 3 10 8 10 11 0 2 -4 4 -10 4 -5 0 -10
-5 -10 -11z"/>
<path d="M2760 2873 c8 -3 24 -10 35 -15 20 -9 20 -9 1 6 -11 9 -27 16 -35 15
-14 0 -14 -1 -1 -6z"/>
<path d="M3625 2680 c-3 -6 -3 -19 0 -30 5 -15 -1 -24 -24 -38 -17 -9 -31 -22
-31 -28 0 -6 -11 -21 -25 -34 -30 -28 -33 -15 -5 20 11 14 20 29 20 33 0 5 9
21 21 35 31 40 5 38 -38 -3 -32 -31 -36 -39 -25 -56 7 -10 8 -19 3 -19 -5 0
-11 5 -13 12 -3 8 -12 5 -28 -10 -18 -16 -20 -24 -12 -35 7 -8 8 -18 4 -22 -4
-5 1 -5 11 -2 45 16 67 19 67 7 0 -6 5 -8 10 -5 6 4 8 10 5 15 -14 22 47 92
71 83 7 -2 15 0 19 6 3 6 1 11 -6 11 -8 0 -8 4 -1 13 6 7 9 23 5 35 -6 23 -18
28 -28 12z"/>
<path d="M3613 2578 c-23 -30 -24 -41 -2 -21 12 12 20 25 17 28 -3 3 -10 0
-15 -7z"/>
<path d="M3096 2313 c-4 -10 -2 -19 3 -21 6 -2 11 -10 11 -18 0 -8 3 -14 8
-14 11 0 55 50 44 50 -6 0 -14 -4 -17 -10 -3 -5 -11 -10 -16 -10 -6 0 -8 4 -5
9 3 5 0 14 -8 20 -11 9 -15 8 -20 -6z"/>
<path d="M2975 2280 c-3 -6 1 -7 9 -4 18 7 21 14 7 14 -6 0 -13 -4 -16 -10z"/>
<path d="M2970 2246 c0 -2 7 -7 16 -10 8 -3 12 -2 9 4 -6 10 -25 14 -25 6z"/>
<path d="M2925 2190 c-11 -17 5 -32 21 -19 8 6 14 15 14 20 0 12 -27 11 -35
-1z"/>
<path d="M2875 2182 c-5 -4 -11 -15 -13 -24 -2 -16 0 -16 22 -7 14 7 22 17 19
25 -6 16 -13 17 -28 6z"/>
<path d="M2936 2124 c-20 -24 -26 -38 -18 -46 7 -7 18 2 36 28 43 63 30 76
-18 18z"/>
<path d="M2810 2115 c0 -8 5 -15 10 -15 6 0 10 7 10 15 0 8 -4 15 -10 15 -5 0
-10 -7 -10 -15z"/>
<path d="M2895 2120 c-3 -5 -1 -10 4 -10 6 0 11 5 11 10 0 6 -2 10 -4 10 -3 0
-8 -4 -11 -10z"/>
<path d="M2800 2070 c0 -5 5 -10 11 -10 5 0 7 5 4 10 -3 6 -8 10 -11 10 -2 0
-4 -4 -4 -10z"/>
<path d="M2875 2070 c-3 -5 -1 -10 4 -10 6 0 11 5 11 10 0 6 -2 10 -4 10 -3 0
-8 -4 -11 -10z"/>
<path d="M2861 1994 c0 -11 3 -14 6 -6 3 7 2 16 -1 19 -3 4 -6 -2 -5 -13z"/>
<path d="M550 1790 c0 -5 5 -10 10 -10 6 0 10 5 10 10 0 6 -4 10 -10 10 -5 0
-10 -4 -10 -10z"/>
</g>
</svg>
